<svg xmlns="http://www.w3.org/2000/svg" viewBox="0 0 64 64" fill="none">
  <circle cx="32" cy="32" r="28" stroke="#22d3ee" stroke-width="2" fill="none"/>
  <circle cx="32" cy="32" r="28" fill="#22d3ee" opacity="0.08"/>
  <polygon points="32,14 38,22 35,30 29,30 26,22" stroke="#22d3ee" stroke-width="1.5" fill="#22d3ee" opacity="0.15" stroke-linejoin="round"/>
  <polygon points="16,26 22,22 29,30 26,38 17,35" stroke="#22d3ee" stroke-width="1.5" fill="#22d3ee" opacity="0.15" stroke-linejoin="round"/>
  <polygon points="48,26 42,22 35,30 38,38 47,35" stroke="#22d3ee" stroke-width="1.5" fill="#22d3ee" opacity="0.15" stroke-linejoin="round"/>
  <polygon points="21,44 26,38 29,30 35,30 38,38 43,44 37,50 27,50" stroke="#22d3ee" stroke-width="1.5" fill="#22d3ee" opacity="0.15" stroke-linejoin="round"/>
  <circle cx="32" cy="32" r="28" stroke="#22d3ee" stroke-width="2" fill="none"/>
  <circle cx="32" cy="32" r="6" stroke="#22d3ee" stroke-width="1" fill="none" opacity="0.3"/>
  <line x1="32" y1="8" x2="32" y2="14" stroke="#22d3ee" stroke-width="1" opacity="0.3"/>
  <line x1="32" y1="50" x2="32" y2="56" stroke="#22d3ee" stroke-width="1" opacity="0.3"/>
  <line x1="8" y1="32" x2="14" y2="32" stroke="#22d3ee" stroke-width="1" opacity="0.3"/>
  <line x1="50" y1="32" x2="56" y2="32" stroke="#22d3ee" stroke-width="1" opacity="0.3"/>
</svg>
